<svg xmlns="http://www.w3.org/2000/svg" viewBox="0 0 320 70" fill="none">
  <!-- Icon group, scaled to fit 64x64 inside the 70-height bar -->
  <g transform="translate(3,3) scale(0.305)">
    <!-- Left hand / wing -->
    <path d="M100,185 C95,185 75,188 55,178 C35,168 20,148 22,122 C24,98 42,80 64,72 C78,67 93,70 102,80 L100,185 Z" fill="#1B6B3A"/>
    <path d="M100,185 C95,185 82,183 72,175 C62,167 56,155 58,140 C60,125 70,110 85,100 C92,95 99,93 104,95 L100,185 Z" fill="#155A30"/>
    <!-- Right hand / wing -->
    <path d="M100,185 C105,185 125,188 145,178 C165,168 180,148 178,122 C176,98 158,80 136,72 C122,67 107,70 98,80 L100,185 Z" fill="#1B6B3A"/>
    <path d="M100,185 C105,185 118,183 128,175 C138,167 144,155 142,140 C140,125 130,110 115,100 C108,95 101,93 96,95 L100,185 Z" fill="#155A30"/>
    <!-- Bottom V -->
    <path d="M88,182 L100,198 L112,182 Z" fill="#0F4A26"/>
    <!-- Golden figure body -->
    <path d="M100,172 C68,158 55,130 68,108 C76,95 88,89 100,91 C112,89 124,95 132,108 C145,130 132,158 100,172 Z" fill="#F5A623"/>
    <!-- Head -->
    <circle cx="100" cy="74" r="21" fill="#F5A623"/>
    <!-- Graduation cap board -->
    <rect x="76" y="53" width="48" height="9" rx="1.5" fill="#1A1A1A"/>
    <!-- Cap crown -->
    <path d="M88,53 L100,40 L112,53 Z" fill="#1A1A1A"/>
    <!-- Tassel -->
    <line x1="124" y1="57" x2="134" y2="68" stroke="#1A1A1A" stroke-width="2.5" stroke-linecap="round"/>
    <circle cx="134" cy="72" r="4" fill="#1A1A1A"/>
  </g>

  <!-- "Xerxez" bold text -->
  <text x="76" y="32" font-family="'Arial Black','Helvetica Neue',Arial,sans-serif" font-weight="900" font-size="26" fill="#1A1A1A" letter-spacing="0.5">Xerxez</text>
  <!-- "Solutions" lighter text -->
  <text x="76" y="54" font-family="'Arial','Helvetica Neue',Arial,sans-serif" font-weight="500" font-size="14" fill="#444444" letter-spacing="2">SOLUTIONS</text>
</svg>
