<svg xmlns="http://www.w3.org/2000/svg" viewBox="0 0 60 72">

  <!-- LEFT GREEN HAND -->
  <path d="M30,62 C25,66 14,68 4,62 C1,56 0,44 2,32 C4,22 12,14 22,12 C26,11 29,12 30,14 L30,62 Z"
        fill="#1B6B3A"/>

  <!-- RIGHT GREEN HAND -->
  <path d="M30,62 C35,66 46,68 56,62 C59,56 60,44 58,32 C56,22 48,14 38,12 C34,11 31,12 30,14 L30,62 Z"
        fill="#1B6B3A"/>

  <!-- BOTTOM V -->
  <polygon points="24,61 30,72 36,61" fill="#0F4A26"/>

  <!-- GOLDEN BODY -->
  <path d="M30,62 C16,52 12,36 18,24 C22,16 26,14 30,14 C34,14 38,16 42,24 C48,36 44,52 30,62 Z"
        fill="#F5B82E"/>

  <!-- HEAD -->
  <circle cx="30" cy="22" r="10" fill="#F5B82E"/>

  <!-- CAP BOARD -->
  <rect x="16" y="11" width="28" height="5" rx="1" fill="#1A1A1A"/>

  <!-- CAP CROWN -->
  <polygon points="22,11 30,4 38,11" fill="#1A1A1A"/>

  <!-- TASSEL -->
  <line x1="44" y1="13" x2="50" y2="20" stroke="#1A1A1A" stroke-width="1.8" stroke-linecap="round"/>
  <circle cx="50" cy="23" r="2.5" fill="#1A1A1A"/>

</svg>
