<svg xmlns="http://www.w3.org/2000/svg" viewBox="0 0 230 70">

  <!-- === LEFT GREEN HAND / WING === -->
  <path d="M30,62 C25,66 14,68 4,62 C1,56 0,44 2,32 C4,22 12,14 22,12 C26,11 29,12 30,14 L30,62 Z"
        fill="#2ECC71"/>

  <!-- === RIGHT GREEN HAND / WING === -->
  <path d="M30,62 C35,66 46,68 56,62 C59,56 60,44 58,32 C56,22 48,14 38,12 C34,11 31,12 30,14 L30,62 Z"
        fill="#2ECC71"/>

  <!-- === BOTTOM V POINT === -->
  <polygon points="24,61 30,70 36,61" fill="#1E8449"/>

  <!-- === GOLDEN FIGURE BODY === -->
  <path d="M30,62 C16,52 12,36 18,24 C22,16 26,14 30,14 C34,14 38,16 42,24 C48,36 44,52 30,62 Z"
        fill="#F5B82E"/>

  <!-- === HEAD CIRCLE === -->
  <circle cx="30" cy="22" r="10" fill="#F5B82E"/>

  <!-- === GRADUATION CAP BOARD === -->
  <rect x="16" y="11" width="28" height="5" rx="1" fill="#FFFFFF"/>

  <!-- === CAP CROWN === -->
  <polygon points="22,11 30,4 38,11" fill="#FFFFFF"/>

  <!-- === TASSEL === -->
  <line x1="44" y1="13" x2="50" y2="20" stroke="#FFFFFF" stroke-width="1.8" stroke-linecap="round"/>
  <circle cx="50" cy="23" r="2.5" fill="#FFFFFF"/>

  <!-- === COMPANY NAME TEXT (white) === -->
  <text x="68" y="37"
        font-family="Arial Black, Arial, sans-serif"
        font-weight="900"
        font-size="28"
        fill="#FFFFFF">Xerxez</text>

  <text x="68" y="56"
        font-family="Arial, sans-serif"
        font-weight="600"
        font-size="13"
        fill="rgba(255,255,255,0.85)"
        letter-spacing="3">SOLUTIONS</text>

</svg>
