<svg width="142" height="55" viewBox="0 0 142 55" fill="none" xmlns="http://www.w3.org/2000/svg">
<g filter="url(#filter0_d_83_13536)">
<path d="M68.832 34.821C67.0187 34.821 65.4613 34.5116 64.16 33.893C62.88 33.2743 61.7173 32.3463 60.672 31.109L63.552 28.229C64.2133 29.1036 64.9813 29.7863 65.856 30.277C66.7307 30.7463 67.7973 30.981 69.056 30.981C70.1867 30.981 71.0827 30.757 71.744 30.309C72.4267 29.861 72.768 29.2423 72.768 28.453C72.768 27.7703 72.576 27.2156 72.192 26.789C71.808 26.3623 71.296 25.9996 70.656 25.701C70.0373 25.4023 69.344 25.1356 68.576 24.901C67.8293 24.645 67.072 24.357 66.304 24.037C65.5573 23.717 64.864 23.3223 64.224 22.853C63.6053 22.3623 63.104 21.7436 62.72 20.997C62.336 20.229 62.144 19.269 62.144 18.117C62.144 16.7516 62.4747 15.589 63.136 14.629C63.7973 13.669 64.704 12.933 65.856 12.421C67.008 11.909 68.3093 11.653 69.76 11.653C71.296 11.653 72.6827 11.941 73.92 12.517C75.1573 13.093 76.1707 13.8396 76.96 14.757L74.08 17.637C73.4187 16.9116 72.736 16.3783 72.032 16.037C71.3493 15.6956 70.5707 15.525 69.696 15.525C68.6933 15.525 67.904 15.717 67.328 16.101C66.752 16.485 66.464 17.0396 66.464 17.765C66.464 18.3836 66.656 18.885 67.04 19.269C67.424 19.653 67.9253 19.9836 68.544 20.261C69.184 20.5383 69.8773 20.805 70.624 21.061C71.392 21.317 72.1493 21.605 72.896 21.925C73.664 22.245 74.3573 22.661 74.976 23.173C75.616 23.685 76.128 24.3463 76.512 25.157C76.896 25.9463 77.088 26.9276 77.088 28.101C77.088 30.1916 76.352 31.8343 74.88 33.029C73.408 34.2236 71.392 34.821 68.832 34.821ZM79.5628 34.501V12.005H83.9148V34.501H79.5628ZM82.7628 34.501V30.661H95.2108V34.501H82.7628ZM82.7628 24.869V21.157H94.0908V24.869H82.7628ZM82.7628 15.845V12.005H95.0508V15.845H82.7628ZM107.975 34.853C106.332 34.853 104.796 34.5543 103.367 33.957C101.959 33.3596 100.721 32.5383 99.6545 31.493C98.6092 30.4263 97.7878 29.189 97.1905 27.781C96.5932 26.3516 96.2945 24.8263 96.2945 23.205C96.2945 21.5836 96.5825 20.0796 97.1585 18.693C97.7558 17.285 98.5772 16.0583 99.6225 15.013C100.689 13.9463 101.927 13.125 103.335 12.549C104.743 11.9516 106.268 11.653 107.911 11.653C109.575 11.653 111.111 11.9516 112.519 12.549C113.927 13.125 115.153 13.9463 116.199 15.013C117.265 16.0583 118.097 17.285 118.695 18.693C119.292 20.101 119.591 21.6156 119.591 23.237C119.591 24.8583 119.292 26.373 118.695 27.781C118.097 29.189 117.265 30.4263 116.199 31.493C115.153 32.5383 113.927 33.3596 112.519 33.957C111.132 34.5543 109.617 34.853 107.975 34.853ZM107.911 30.789C109.361 30.789 110.62 30.469 111.687 29.829C112.753 29.189 113.585 28.3036 114.183 27.173C114.801 26.0423 115.111 24.7196 115.111 23.205C115.111 22.0956 114.94 21.0823 114.599 20.165C114.257 19.2476 113.767 18.4583 113.127 17.797C112.487 17.1143 111.729 16.5916 110.855 16.229C109.98 15.8663 108.999 15.685 107.911 15.685C106.503 15.685 105.255 16.005 104.167 16.645C103.1 17.2636 102.257 18.1383 101.639 19.269C101.041 20.3996 100.743 21.7116 100.743 23.205C100.743 24.3356 100.913 25.3703 101.255 26.309C101.617 27.2476 102.108 28.0476 102.727 28.709C103.367 29.3703 104.124 29.8823 104.999 30.245C105.895 30.6076 106.865 30.789 107.911 30.789ZM120.363 31.461L132.171 15.045H137.355L125.547 31.461H120.363ZM120.363 34.501V31.461L123.627 30.661H137.099V34.501H120.363ZM121.035 15.845V12.005H137.355V15.045L134.059 15.845H121.035Z" fill="white"/>
<path d="M13.6342 27.4521L12.6756 28.4105V37.1893H18.852V32.6702L13.6342 27.4521Z" fill="url(#paint0_linear_83_13536)"/>
<path d="M21.8797 34.1717V39.5959H28.0561V27.9951L21.8797 34.1717Z" fill="url(#paint1_linear_83_13536)"/>
<path d="M34.6406 21.4111L31.0837 24.9682V37.3727H37.2601V24.0306L34.6406 21.4111Z" fill="url(#paint2_linear_83_13536)"/>
<path d="M8.36339 28.7566L5.88675 26.2799L13.6342 18.5328L21.1169 26.0155L33.8412 13.291L36.3179 15.7675L21.1169 30.9688L13.6342 23.4859L8.36339 28.7566Z" fill="#FF792E"/>
<path d="M42.5451 31.8671C44.5887 28.592 45.7498 24.7095 45.6921 20.5513C45.5356 9.27725 36.3096 0.100131 25.0349 0.000828199C13.3726 -0.101939 3.89822 9.37243 4.00083 21.0348C4.10013 32.3146 13.2855 41.543 24.5648 41.6923C28.7261 41.7474 32.611 40.5818 35.8867 38.5327L42.958 45.604C44.7977 47.4438 47.7804 47.4438 49.6202 45.604C51.4599 43.7643 51.4599 40.7816 49.6202 38.9418L42.5451 31.8671ZM25.1671 37.6982C15.6056 37.8755 7.81872 30.0888 7.99604 20.5272C8.16314 11.5162 15.516 4.16314 24.5272 3.99605C34.0887 3.81872 41.8755 11.6056 41.6982 21.1671C41.531 30.1782 34.1781 37.5311 25.1671 37.6982Z" fill="#6C57D2"/>
<path d="M28.7443 11.5485L38.0603 20.8645L41.056 8.55273L28.7443 11.5485Z" fill="#FF792E"/>
<path d="M42.5116 31.9092C40.8378 34.5649 38.583 36.8223 35.9294 38.499C35.9152 38.5103 35.9007 38.522 35.8867 38.533C36.813 39.4594 37.7394 40.3858 38.6658 41.3122C40.9135 38.9659 42.6191 36.0961 43.5825 32.9046L42.5451 31.8672C42.5342 31.881 42.5225 31.8952 42.5116 31.9092Z" fill="#FBF6E1"/>
</g>
<defs>
<filter id="filter0_d_83_13536" x="0" y="0" width="141.355" height="54.9834" filterUnits="userSpaceOnUse" color-interpolation-filters="sRGB">
<feFlood flood-opacity="0" result="BackgroundImageFix"/>
<feColorMatrix in="SourceAlpha" type="matrix" values="0 0 0 0 0 0 0 0 0 0 0 0 0 0 0 0 0 0 127 0" result="hardAlpha"/>
<feOffset dy="4"/>
<feGaussianBlur stdDeviation="2"/>
<feComposite in2="hardAlpha" operator="out"/>
<feColorMatrix type="matrix" values="0 0 0 0 0 0 0 0 0 0 0 0 0 0 0 0 0 0 0.25 0"/>
<feBlend mode="normal" in2="BackgroundImageFix" result="effect1_dropShadow_83_13536"/>
<feBlend mode="normal" in="SourceGraphic" in2="effect1_dropShadow_83_13536" result="shape"/>
</filter>
<linearGradient id="paint0_linear_83_13536" x1="15.7638" y1="40.5958" x2="15.7638" y2="28.2584" gradientUnits="userSpaceOnUse">
<stop stop-color="#FF4D00"/>
<stop offset="1" stop-color="#FF654A"/>
</linearGradient>
<linearGradient id="paint1_linear_83_13536" x1="24.9679" y1="43.6543" x2="24.9679" y2="28.9557" gradientUnits="userSpaceOnUse">
<stop stop-color="#FF4D00"/>
<stop offset="1" stop-color="#FF654A"/>
</linearGradient>
<linearGradient id="paint2_linear_83_13536" x1="34.1719" y1="42.9568" x2="34.1719" y2="22.7328" gradientUnits="userSpaceOnUse">
<stop stop-color="#FF4D00"/>
<stop offset="1" stop-color="#FF654A"/>
</linearGradient>
</defs>
</svg>
