<svg width="22" height="22" viewBox="0 0 22 22" fill="none" xmlns="http://www.w3.org/2000/svg">
<g clip-path="url(#clip0_32_7234)">
<path d="M20.6491 15.5334C20.6126 15.5031 16.4952 12.5565 15.378 12.7497C14.8411 12.8446 14.5338 13.2103 13.9184 13.9439C13.8194 14.0621 13.5809 14.3447 13.3966 14.5461C13.0077 14.4194 12.6284 14.265 12.2616 14.0841C10.3679 13.1622 8.83781 11.6321 7.91587 9.73844C7.73497 9.3716 7.58057 8.99228 7.45388 8.60337C7.656 8.41844 7.93925 8.17987 8.06025 8.07812C8.78969 7.46625 9.15544 7.15894 9.25031 6.62131C9.44487 5.50825 6.49688 1.38737 6.46663 1.35025C6.33237 1.15985 6.15752 1.00164 5.95469 0.887024C5.75186 0.772413 5.52612 0.704265 5.29375 0.6875C4.09887 0.6875 0.6875 5.11225 0.6875 5.85819C0.6875 5.9015 0.750063 10.3042 6.17925 15.8269C11.6958 21.2499 16.0985 21.3125 16.1418 21.3125C16.8878 21.3125 21.3125 17.9011 21.3125 16.7062C21.2957 16.4738 21.2275 16.248 21.1128 16.0451C20.9981 15.8423 20.8397 15.6675 20.6491 15.5334ZM16.0662 19.9334C15.4653 19.8839 11.7707 19.3964 7.15138 14.8582C2.58981 10.2142 2.11475 6.50925 2.06731 5.93519C2.96847 4.52075 4.05679 3.2347 5.30269 2.112C5.33019 2.1395 5.36662 2.18075 5.41337 2.23438C6.36888 3.53872 7.19199 4.93506 7.8705 6.40269C7.64985 6.62466 7.41664 6.83378 7.172 7.029C6.79263 7.31806 6.44427 7.64569 6.1325 8.00663L5.96544 8.24038L6.01494 8.52294C6.16043 9.15319 6.38327 9.76304 6.67837 10.3386C7.73567 12.5098 9.49009 14.2639 11.6614 15.3209C12.2368 15.6165 12.8467 15.8395 13.4771 15.9851L13.7596 16.0346L13.9934 15.8675C14.3557 15.5543 14.6847 15.2046 14.9751 14.8239C15.1903 14.5668 15.4784 14.2237 15.587 14.1267C17.0588 14.8046 18.4587 15.6287 19.7656 16.5866C19.8227 16.6347 19.8626 16.6719 19.8894 16.6959C18.7669 17.9422 17.4808 19.0308 16.0662 19.932V19.9334Z" fill="white"/>
</g>
<defs>
<clipPath id="clip0_32_7234">
<rect width="22" height="22" fill="white"/>
</clipPath>
</defs>
</svg>
