<svg width="47" height="47" viewBox="0 0 47 47" fill="none" xmlns="http://www.w3.org/2000/svg">
<path d="M9.63418 27.4519L8.67563 28.4102V37.189H14.852V32.6699L9.63418 27.4519Z" fill="url(#paint0_linear_18_2995)"/>
<path d="M17.8797 34.172V39.5962H24.0561V27.9954L17.8797 34.172Z" fill="url(#paint1_linear_18_2995)"/>
<path d="M30.6406 21.4107L27.0837 24.9678V37.3723H33.2601V24.0302L30.6406 21.4107Z" fill="url(#paint2_linear_18_2995)"/>
<path d="M4.36339 28.7567L1.88675 26.28L9.6342 18.5329L17.1169 26.0156L29.8412 13.2911L32.3179 15.7676L17.1169 30.9689L9.6342 23.486L4.36339 28.7567Z" fill="#FF792E"/>
<path d="M38.5451 31.8671C40.5887 28.592 41.7498 24.7095 41.6921 20.5513C41.5356 9.27725 32.3096 0.100131 21.0349 0.000828199C9.3726 -0.101939 -0.101777 9.37243 0.000825555 21.0348C0.100129 32.3146 9.2855 41.543 20.5648 41.6923C24.7261 41.7474 28.611 40.5818 31.8867 38.5327L38.958 45.604C40.7977 47.4438 43.7804 47.4438 45.6202 45.604C47.4599 43.7643 47.4599 40.7816 45.6202 38.9418L38.5451 31.8671ZM21.1671 37.6982C11.6056 37.8755 3.81872 30.0888 3.99604 20.5272C4.16314 11.5162 11.516 4.16314 20.5272 3.99605C30.0887 3.81872 37.8755 11.6056 37.6982 21.1671C37.531 30.1782 30.1781 37.5311 21.1671 37.6982Z" fill="#6C57D2"/>
<path d="M24.7443 11.5487L34.0603 20.8647L37.056 8.55293L24.7443 11.5487Z" fill="#FF792E"/>
<path d="M38.5116 31.9091C36.8378 34.5647 34.583 36.8221 31.9294 38.4989C31.9152 38.5101 31.9007 38.5218 31.8867 38.5329C32.813 39.4593 33.7394 40.3857 34.6658 41.312C36.9135 38.9657 38.6191 36.096 39.5825 32.9044L38.5451 31.867C38.5342 31.8809 38.5225 31.8951 38.5116 31.9091Z" fill="#FBF6E1"/>
<defs>
<linearGradient id="paint0_linear_18_2995" x1="11.7638" y1="40.5955" x2="11.7638" y2="28.2581" gradientUnits="userSpaceOnUse">
<stop stop-color="#FF4D00"/>
<stop offset="1" stop-color="#FF654A"/>
</linearGradient>
<linearGradient id="paint1_linear_18_2995" x1="20.9679" y1="43.6546" x2="20.9679" y2="28.956" gradientUnits="userSpaceOnUse">
<stop stop-color="#FF4D00"/>
<stop offset="1" stop-color="#FF654A"/>
</linearGradient>
<linearGradient id="paint2_linear_18_2995" x1="30.1719" y1="42.9563" x2="30.1719" y2="22.7324" gradientUnits="userSpaceOnUse">
<stop stop-color="#FF4D00"/>
<stop offset="1" stop-color="#FF654A"/>
</linearGradient>
</defs>
</svg>
