<svg width="135" height="47" viewBox="0 0 135 47" fill="none" xmlns="http://www.w3.org/2000/svg">
<path d="M64.832 34.8209C63.0187 34.8209 61.4613 34.5115 60.16 33.8929C58.88 33.2742 57.7173 32.3462 56.672 31.1089L59.552 28.2289C60.2133 29.1035 60.9813 29.7862 61.856 30.2769C62.7307 30.7462 63.7973 30.9809 65.056 30.9809C66.1867 30.9809 67.0827 30.7569 67.744 30.3089C68.4267 29.8609 68.768 29.2422 68.768 28.4529C68.768 27.7702 68.576 27.2155 68.192 26.7889C67.808 26.3622 67.296 25.9995 66.656 25.7009C66.0373 25.4022 65.344 25.1355 64.576 24.9009C63.8293 24.6449 63.072 24.3569 62.304 24.0369C61.5573 23.7169 60.864 23.3222 60.224 22.8529C59.6053 22.3622 59.104 21.7435 58.72 20.9969C58.336 20.2289 58.144 19.2689 58.144 18.1169C58.144 16.7515 58.4747 15.5889 59.136 14.6289C59.7973 13.6689 60.704 12.9329 61.856 12.4209C63.008 11.9089 64.3093 11.6529 65.76 11.6529C67.296 11.6529 68.6827 11.9409 69.92 12.5169C71.1573 13.0929 72.1707 13.8395 72.96 14.7569L70.08 17.6369C69.4187 16.9115 68.736 16.3782 68.032 16.0369C67.3493 15.6955 66.5707 15.5249 65.696 15.5249C64.6933 15.5249 63.904 15.7169 63.328 16.1009C62.752 16.4849 62.464 17.0395 62.464 17.7649C62.464 18.3835 62.656 18.8849 63.04 19.2689C63.424 19.6529 63.9253 19.9835 64.544 20.2609C65.184 20.5382 65.8773 20.8049 66.624 21.0609C67.392 21.3169 68.1493 21.6049 68.896 21.9249C69.664 22.2449 70.3573 22.6609 70.976 23.1729C71.616 23.6849 72.128 24.3462 72.512 25.1569C72.896 25.9462 73.088 26.9275 73.088 28.1009C73.088 30.1915 72.352 31.8342 70.88 33.0289C69.408 34.2235 67.392 34.8209 64.832 34.8209ZM75.5628 34.5009V12.0049H79.9148V34.5009H75.5628ZM78.7628 34.5009V30.6609H91.2108V34.5009H78.7628ZM78.7628 24.8689V21.1569H90.0908V24.8689H78.7628ZM78.7628 15.8449V12.0049H91.0508V15.8449H78.7628ZM103.975 34.8529C102.332 34.8529 100.796 34.5542 99.3665 33.9569C97.9585 33.3595 96.7212 32.5382 95.6545 31.4929C94.6092 30.4262 93.7878 29.1889 93.1905 27.7809C92.5932 26.3515 92.2945 24.8262 92.2945 23.2049C92.2945 21.5835 92.5825 20.0795 93.1585 18.6929C93.7558 17.2849 94.5772 16.0582 95.6225 15.0129C96.6892 13.9462 97.9265 13.1249 99.3345 12.5489C100.743 11.9515 102.268 11.6529 103.911 11.6529C105.575 11.6529 107.111 11.9515 108.519 12.5489C109.927 13.1249 111.153 13.9462 112.199 15.0129C113.265 16.0582 114.097 17.2849 114.695 18.6929C115.292 20.1009 115.591 21.6155 115.591 23.2369C115.591 24.8582 115.292 26.3729 114.695 27.7809C114.097 29.1889 113.265 30.4262 112.199 31.4929C111.153 32.5382 109.927 33.3595 108.519 33.9569C107.132 34.5542 105.617 34.8529 103.975 34.8529ZM103.911 30.7889C105.361 30.7889 106.62 30.4689 107.687 29.8289C108.753 29.1889 109.585 28.3035 110.183 27.1729C110.801 26.0422 111.111 24.7195 111.111 23.2049C111.111 22.0955 110.94 21.0822 110.599 20.1649C110.257 19.2475 109.767 18.4582 109.127 17.7969C108.487 17.1142 107.729 16.5915 106.855 16.2289C105.98 15.8662 104.999 15.6849 103.911 15.6849C102.503 15.6849 101.255 16.0049 100.167 16.6449C99.0998 17.2635 98.2572 18.1382 97.6385 19.2689C97.0412 20.3995 96.7425 21.7115 96.7425 23.2049C96.7425 24.3355 96.9132 25.3702 97.2545 26.3089C97.6172 27.2475 98.1078 28.0475 98.7265 28.7089C99.3665 29.3702 100.124 29.8822 100.999 30.2449C101.895 30.6075 102.865 30.7889 103.911 30.7889ZM116.363 31.4609L128.171 15.0449H133.355L121.547 31.4609H116.363ZM116.363 34.5009V31.4609L119.627 30.6609H133.099V34.5009H116.363ZM117.035 15.8449V12.0049H133.355V15.0449L130.059 15.8449H117.035Z" fill="#003566"/>
<path d="M9.63418 27.4519L8.67563 28.4102V37.189H14.852V32.6699L9.63418 27.4519Z" fill="url(#paint0_linear_18_3005)"/>
<path d="M17.8797 34.172V39.5962H24.0561V27.9954L17.8797 34.172Z" fill="url(#paint1_linear_18_3005)"/>
<path d="M30.6406 21.4107L27.0837 24.9678V37.3723H33.2601V24.0302L30.6406 21.4107Z" fill="url(#paint2_linear_18_3005)"/>
<path d="M4.36339 28.7567L1.88675 26.28L9.6342 18.5329L17.1169 26.0156L29.8412 13.2911L32.3179 15.7676L17.1169 30.9689L9.6342 23.486L4.36339 28.7567Z" fill="#FF792E"/>
<path d="M38.5451 31.8671C40.5887 28.592 41.7498 24.7095 41.6921 20.5513C41.5356 9.27725 32.3096 0.100131 21.0349 0.000828199C9.3726 -0.101939 -0.101777 9.37243 0.000825555 21.0348C0.100129 32.3146 9.2855 41.543 20.5648 41.6923C24.7261 41.7474 28.611 40.5818 31.8867 38.5327L38.958 45.604C40.7977 47.4438 43.7804 47.4438 45.6202 45.604C47.4599 43.7643 47.4599 40.7816 45.6202 38.9418L38.5451 31.8671ZM21.1671 37.6982C11.6056 37.8755 3.81872 30.0888 3.99604 20.5272C4.16314 11.5162 11.516 4.16314 20.5272 3.99605C30.0887 3.81872 37.8755 11.6056 37.6982 21.1671C37.531 30.1782 30.1781 37.5311 21.1671 37.6982Z" fill="#6C57D2"/>
<path d="M24.7443 11.5487L34.0603 20.8647L37.056 8.55293L24.7443 11.5487Z" fill="#FF792E"/>
<path d="M38.5116 31.9091C36.8378 34.5647 34.583 36.8221 31.9294 38.4989C31.9152 38.5101 31.9007 38.5218 31.8867 38.5329C32.813 39.4593 33.7394 40.3857 34.6658 41.312C36.9135 38.9657 38.6191 36.096 39.5825 32.9044L38.5451 31.867C38.5342 31.8809 38.5225 31.8951 38.5116 31.9091Z" fill="#FBF6E1"/>
<defs>
<linearGradient id="paint0_linear_18_3005" x1="11.7638" y1="40.5955" x2="11.7638" y2="28.2581" gradientUnits="userSpaceOnUse">
<stop stop-color="#FF4D00"/>
<stop offset="1" stop-color="#FF654A"/>
</linearGradient>
<linearGradient id="paint1_linear_18_3005" x1="20.9679" y1="43.6546" x2="20.9679" y2="28.956" gradientUnits="userSpaceOnUse">
<stop stop-color="#FF4D00"/>
<stop offset="1" stop-color="#FF654A"/>
</linearGradient>
<linearGradient id="paint2_linear_18_3005" x1="30.1719" y1="42.9563" x2="30.1719" y2="22.7324" gradientUnits="userSpaceOnUse">
<stop stop-color="#FF4D00"/>
<stop offset="1" stop-color="#FF654A"/>
</linearGradient>
</defs>
</svg>
